<svg id="_011-money" data-name="011-money" xmlns="http://www.w3.org/2000/svg" width="62.859" height="62.859" viewBox="0 0 62.859 62.859">
  <path id="Path_58" data-name="Path 58" d="M52.811,33.43,64.335,21.905,44.43,2,13,33.43" transform="translate(-1.476 -2)" fill="#78b75b"/>
  <path id="Path_59" data-name="Path 59" d="M22,32.477a10.477,10.477,0,0,1,20.953,0" transform="translate(-1.047 -1.047)" fill="#669e4f"/>
  <path id="Path_60" data-name="Path 60" d="M39.478,33.807a4.165,4.165,0,0,0-1.228-2.964,4.289,4.289,0,0,0-5.924,0l-2.964-2.964a2.1,2.1,0,0,1,2.964,0l1.48-1.482a4.2,4.2,0,0,0-5.926,0l-.741-.741-1.482,1.482.742.742a4.19,4.19,0,0,0,5.926,5.927l2.964,2.964a2.1,2.1,0,0,1-2.964,0l-1.48,1.482a4.2,4.2,0,0,0,5.926,0l.741.741,1.482-1.482-.742-.742a4.165,4.165,0,0,0,1.227-2.963Zm-8.636-1.481a2.145,2.145,0,0,1-2.962,0,2.1,2.1,0,0,1,0-2.963Zm2.965,0a2.145,2.145,0,0,1,2.962,0,2.1,2.1,0,0,1,0,2.963Z" transform="translate(-0.896 -0.896)" fill="#78b75b"/>
  <g id="Group_4657" data-name="Group 4657" transform="translate(33.607 5.237)">
    <path id="Path_61" data-name="Path 61" d="M48.9,31.012,47.414,29.53l8.149-8.149L43.709,9.529,35.56,17.678,34.078,16.2l8.889-8.889a1.049,1.049,0,0,1,1.482,0L57.785,20.641a1.051,1.051,0,0,1,0,1.482Z" transform="translate(-34.078 -6.999)" fill="#669e4f"/>
  </g>
  <g id="Group_4658" data-name="Group 4658" transform="translate(44.004 23.305)">
    <path id="Path_62" data-name="Path 62" d="M0,0H2.1V2.1H0Z" transform="translate(0 1.483) rotate(-45.04)" fill="#96cc7f"/>
  </g>
  <g id="Group_4659" data-name="Group 4659" transform="translate(46.937 20.373)">
    <path id="Path_63" data-name="Path 63" d="M0,0H2.1V2.1H0Z" transform="translate(0 1.481) rotate(-45)" fill="#96cc7f"/>
  </g>
  <g id="Group_4660" data-name="Group 4660" transform="translate(36.595 15.915)">
    <path id="Path_64" data-name="Path 64" d="M0,0H2.1V2.094H0Z" transform="translate(0 1.481) rotate(-44.96)" fill="#96cc7f"/>
  </g>
  <g id="Group_4661" data-name="Group 4661" transform="translate(39.531 12.963)">
    <path id="Path_65" data-name="Path 65" d="M0,0H2.1V2.1H0Z" transform="translate(0 1.481) rotate(-45)" fill="#96cc7f"/>
  </g>
  <path id="Path_66" data-name="Path 66" d="M2,32H64.859V59.239H2Z" transform="translate(-2 -0.57)" fill="#96cc7f"/>
  <circle id="Ellipse_3942" data-name="Ellipse 3942" cx="10" cy="10" r="10" transform="translate(21.718 35.585)" fill="#78b75b"/>
  <path id="Path_67" data-name="Path 67" d="M17,58l4.191,4.191L25.381,58" transform="translate(-1.285 0.669)" fill="#78b75b"/>
  <path id="Path_68" data-name="Path 68" d="M33.286,44.334h0V40.143h0a2.1,2.1,0,0,1,2.093,2.1h2.1a4.194,4.194,0,0,0-4.189-4.191h0V37H31.19v1.048a4.19,4.19,0,1,0,0,8.38v4.191a2.1,2.1,0,0,1-2.1-2.1H27a4.2,4.2,0,0,0,4.191,4.19v1.048h2.094V52.714h0a4.19,4.19,0,0,0,0-8.38Zm-4.192-2.1a2.1,2.1,0,0,1,2.1-2.1v4.191A2.1,2.1,0,0,1,29.094,42.238Zm4.192,8.38h0V46.428h0a2.1,2.1,0,0,1,0,4.191Z" transform="translate(-0.809 -0.332)" fill="#669e4f"/>
  <g id="Group_4662" data-name="Group 4662" transform="translate(46.096 34.573)">
    <path id="Path_69" data-name="Path 69" d="M58.57,55.952H46v-2.1H57.522V37.1H46V35H58.57a1.047,1.047,0,0,1,1.048,1.048V54.905A1.046,1.046,0,0,1,58.57,55.952Z" transform="translate(-45.999 -35)" fill="#669e4f"/>
  </g>
  <g id="Group_4663" data-name="Group 4663" transform="translate(3.143 34.573)">
    <path id="Path_70" data-name="Path 70" d="M18.618,55.953H6.048A1.047,1.047,0,0,1,5,54.905V36.048A1.046,1.046,0,0,1,6.047,35H18.618v2.1H7.1V53.858H18.618Z" transform="translate(-5 -35)" fill="#669e4f"/>
  </g>
  <g id="Group_4664" data-name="Group 4664" transform="translate(46.096 49.24)">
    <path id="Path_71" data-name="Path 71" d="M46,49h2.094v2.1H46Z" transform="translate(-45.999 -49)" fill="#78b75b"/>
  </g>
  <g id="Group_4665" data-name="Group 4665" transform="translate(50.286 49.24)">
    <path id="Path_72" data-name="Path 72" d="M50,49h2.094v2.1H50Z" transform="translate(-49.999 -49)" fill="#78b75b"/>
  </g>
  <g id="Group_4666" data-name="Group 4666" transform="translate(46.096 38.763)">
    <path id="Path_73" data-name="Path 73" d="M46,39h2.094v2.1H46Z" transform="translate(-45.999 -39)" fill="#78b75b"/>
  </g>
  <g id="Group_4667" data-name="Group 4667" transform="translate(50.286 38.763)">
    <path id="Path_74" data-name="Path 74" d="M50,39h2.094v2.1H50Z" transform="translate(-49.999 -39)" fill="#78b75b"/>
  </g>
  <g id="Group_4668" data-name="Group 4668" transform="translate(10.477 38.763)">
    <path id="Path_75" data-name="Path 75" d="M12,39h2.094v2.1H12Z" transform="translate(-12 -39)" fill="#78b75b"/>
  </g>
  <g id="Group_4669" data-name="Group 4669" transform="translate(14.667 38.763)">
    <path id="Path_76" data-name="Path 76" d="M16,39h2.094v2.1H16Z" transform="translate(-16 -39)" fill="#78b75b"/>
  </g>
  <g id="Group_4670" data-name="Group 4670" transform="translate(10.477 49.24)">
    <path id="Path_77" data-name="Path 77" d="M12,49h2.094v2.1H12Z" transform="translate(-12 -49)" fill="#78b75b"/>
  </g>
  <g id="Group_4671" data-name="Group 4671" transform="translate(14.667 49.24)">
    <path id="Path_78" data-name="Path 78" d="M16,49h2.094v2.1H16Z" transform="translate(-16 -49)" fill="#78b75b"/>
  </g>
</svg>
