<svg id="_002-facebook-logo" data-name="002-facebook-logo" xmlns="http://www.w3.org/2000/svg" width="11.451" height="21.18" viewBox="0 0 11.451 21.18">
  <path id="Path_70" data-name="Path 70" d="M33.1,0,30.35,0c-3.086,0-5.08,2.046-5.08,5.213v2.4H22.509a.432.432,0,0,0-.432.432V11.53a.432.432,0,0,0,.432.432H25.27v8.787a.432.432,0,0,0,.432.432h3.6a.432.432,0,0,0,.432-.432V11.962h3.229a.432.432,0,0,0,.432-.432V8.048a.432.432,0,0,0-.432-.432h-3.23V5.579c0-.979.233-1.476,1.509-1.476H33.1a.432.432,0,0,0,.432-.432V.436A.432.432,0,0,0,33.1,0Z" transform="translate(-22.077)" fill="#39afa1"/>
</svg>
