<svg id="instagram_1_" data-name="instagram (1)" xmlns="http://www.w3.org/2000/svg" width="21.392" height="21.393" viewBox="0 0 21.392 21.393">
  <path id="Path_74" data-name="Path 74" d="M15.02,0H6.373A6.38,6.38,0,0,0,0,6.373V15.02a6.38,6.38,0,0,0,6.373,6.373H15.02a6.38,6.38,0,0,0,6.373-6.373V6.373A6.38,6.38,0,0,0,15.02,0ZM19.24,15.02A4.221,4.221,0,0,1,15.02,19.24H6.373A4.221,4.221,0,0,1,2.152,15.02V6.373A4.221,4.221,0,0,1,6.373,2.152H15.02A4.221,4.221,0,0,1,19.24,6.373V15.02Z" fill="#39afa1"/>
  <path id="Path_75" data-name="Path 75" d="M138.533,133a5.533,5.533,0,1,0,5.533,5.533A5.539,5.539,0,0,0,138.533,133Zm0,8.914a3.381,3.381,0,1,1,3.381-3.381A3.381,3.381,0,0,1,138.533,141.914Z" transform="translate(-127.837 -127.837)" fill="#39afa1"/>
  <ellipse id="Ellipse_5" data-name="Ellipse 5" cx="1.326" cy="1.326" rx="1.326" ry="1.326" transform="translate(14.914 3.879)" fill="#39afa1"/>
</svg>
