<svg id="_004-linkedin-logo" data-name="004-linkedin-logo" xmlns="http://www.w3.org/2000/svg" width="19.056" height="18.209" viewBox="0 0 19.056 18.209">
  <path id="LinkedIn" d="M19.056,20.722v7.045H14.972V21.194c0-1.651-.591-2.778-2.069-2.778a2.235,2.235,0,0,0-2.1,1.494,2.8,2.8,0,0,0-.135,1v6.862H6.586s.055-11.133,0-12.287h4.085v1.742c-.008.013-.019.027-.027.04h.027v-.04a4.057,4.057,0,0,1,3.682-2.03C17.041,15.192,19.056,16.948,19.056,20.722ZM2.312,9.558A2.129,2.129,0,1,0,2.258,13.8h.027a2.13,2.13,0,1,0,.027-4.246ZM.243,27.767H4.327V15.481H.243Z" transform="translate(0 -9.558)" fill="#39afa1"/>
</svg>
