<svg id="Group_4675" data-name="Group 4675" xmlns="http://www.w3.org/2000/svg" width="51.013" height="57.784" viewBox="0 0 51.013 57.784">
  <g id="_003-security" data-name="003-security" transform="translate(0 0)">
    <path id="Path_99" data-name="Path 99" d="M131.8,0,116,28.892l15.8,28.892.564-.2A37.428,37.428,0,0,0,157.307,22.3V7.253Z" transform="translate(-106.294)" fill="#93b7c0"/>
    <path id="Path_100" data-name="Path 100" d="M30,7.253V22.3A37.428,37.428,0,0,0,54.942,57.585l.564.2V0Z" transform="translate(-30)" fill="#acd5df"/>
    <path id="Path_101" data-name="Path 101" d="M177.06,80q.089-1.173.089-2.361V67.706l-18.735-5.327L146,80Z" transform="translate(-132.908 -55.339)" fill="#c4f3ff"/>
    <path id="Path_102" data-name="Path 102" d="M108.735,62.379,90,67.706V77.64q0,1.187.09,2.361h18.645Z" transform="translate(-83.228 -55.339)" fill="#fff"/>
    <path id="Path_103" data-name="Path 103" d="M167.286,171.542,156,187.14l11.286,15.6.7-.313a30.722,30.722,0,0,0,12.291-10.07,30.369,30.369,0,0,0,5.659-15.51Z" transform="translate(-141.78 -152.182)" fill="#3b88f5"/>
    <path id="Path_104" data-name="Path 104" d="M90.793,176.844a30.368,30.368,0,0,0,5.659,15.51,30.722,30.722,0,0,0,12.291,10.07l.7.313v-31.2Z" transform="translate(-83.932 -152.182)" fill="#28abfa"/>
  </g>
</svg>
