<svg id="_001-twitter-logo-silhouette" data-name="001-twitter-logo-silhouette" xmlns="http://www.w3.org/2000/svg" width="22.62" height="18.374" viewBox="0 0 22.62 18.374">
  <g id="Group_25" data-name="Group 25" transform="translate(0 0)">
    <path id="Path_69" data-name="Path 69" d="M22.621,59.615a9.266,9.266,0,0,1-2.664.731A4.66,4.66,0,0,0,22,57.78a9.355,9.355,0,0,1-2.949,1.127,4.644,4.644,0,0,0-7.907,4.231,13.174,13.174,0,0,1-9.564-4.848,4.646,4.646,0,0,0,1.436,6.194,4.641,4.641,0,0,1-2.1-.582v.058a4.645,4.645,0,0,0,3.722,4.55,4.7,4.7,0,0,1-1.223.163,4.453,4.453,0,0,1-.874-.086A4.643,4.643,0,0,0,6.87,71.808a9.31,9.31,0,0,1-5.763,1.983A9.863,9.863,0,0,1,0,73.727a13.117,13.117,0,0,0,7.113,2.088,13.111,13.111,0,0,0,13.2-13.2l-.016-.6A9.266,9.266,0,0,0,22.621,59.615Z" transform="translate(-0.001 -57.441)" fill="#39afa1"/>
  </g>
</svg>
